<svg
  xmlns="http://www.w3.org/2000/svg"
  xmlns:xlink="http://www.w3.org/1999/xlink"
  version="1.1"
  width="256"
  height="256"
  viewBox="0 0 256 256"
  xml:space="preserve"
>
  <defs></defs>
  <g
    style="stroke: none; stroke-width: 0; stroke-dasharray: none; stroke-linecap: butt; stroke-linejoin: miter; stroke-miterlimit: 10; fill: none; fill-rule: nonzero; opacity: 1;"
    transform="translate(-45 -445) scale(2.5 2.5)"
  >
    <path
      d="m67.733 183.86c-2.8585 0-5.1598 2.2884-5.1598 5.1309v49.292l-15.509-16.921c-1.1154-1.2169-2.6192-1.8391-4.0977-1.8371-1.2251 2e-3 -2.4327 0.43171-3.3876 1.3069-2.1073 1.9315-2.2046 5.3179-0.1221 7.5031l23.253 24.4c3.6848 4.0526 5.7914 4.8877 10.047 8e-5l23.253-24.4c2.0825-2.1852 1.9851-5.5716-0.12217-7.5031-2.1073-1.9315-5.4457-1.695-7.4853 0.53024l-15.51 16.921v-49.292c0-2.8425-2.3013-5.1309-5.1598-5.1309z"
      style="stroke: none; stroke-width: 1; stroke-dasharray: none; stroke-linecap: butt; stroke-linejoin: miter; stroke-miterlimit: 10; fill: green; fill-rule: nonzero; opacity: 1;"
      stroke-linecap="round"
    />
    <path
      d="m109.25 238.21c-3.1468 0-5.6802 2.2904-5.6802 5.1354v18.599h-71.675v-18.464c0-2.845-2.5333-5.1354-5.6802-5.1354-3.1468 0-5.6802 2.2904-5.6802 5.1354v23.885c0 0.10685 4e-3 0.21282 0.01102 0.31801-0.0074 0.10348-0.01102 0.20771-0.01102 0.31255 0 3.3524 3.7938 6.0512 8.5063 6.0512h77.159c4.2428 0 7.7407-2.1876 8.396-5.0703 0.21645-0.54463 0.33455-1.1324 0.33455-1.746v-23.885c0-2.845-2.5334-5.1354-5.6802-5.1354z"
      style="stroke: none; stroke-width: 1; stroke-dasharray: none; stroke-linecap: butt; stroke-linejoin: miter; stroke-miterlimit: 10; fill: green; fill-rule: nonzero; opacity: 1;"
      stroke-linecap="round"
    />
  </g>
</svg>
